<svg width="9" height="16" viewBox="0 0 9 16" fill="none" xmlns="http://www.w3.org/2000/svg">
<g id="arrow_img">
<g id="Group 82">
<path id="Path 5321" d="M0.170843 7.63912L7.10784 0.721121C7.16188 0.667148 7.22602 0.624347 7.2966 0.595162C7.36718 0.565976 7.44282 0.550979 7.5192 0.551025C7.59557 0.551072 7.67119 0.566161 7.74174 0.595432C7.81228 0.624703 7.87637 0.667582 7.93034 0.721621C7.98432 0.77566 8.02712 0.8398 8.0563 0.910381C8.08549 0.980961 8.10048 1.0566 8.10044 1.13297C8.10039 1.20935 8.0853 1.28497 8.05603 1.35551C8.02676 1.42606 7.98388 1.49015 7.92984 1.54412L1.39984 8.05112L7.92984 14.5571C7.98388 14.611 8.02677 14.6751 8.05607 14.7455C8.08537 14.816 8.10049 14.8916 8.10058 14.9679C8.10068 15.0442 8.08574 15.1198 8.05661 15.1904C8.02749 15.261 7.98475 15.3251 7.93084 15.3791C7.87694 15.4332 7.81291 15.4761 7.74243 15.5053C7.67194 15.5346 7.59638 15.5498 7.52005 15.5499C7.44372 15.55 7.36812 15.535 7.29756 15.5059C7.22701 15.4768 7.16288 15.434 7.10884 15.3801L0.170843 8.46212C0.116691 8.40814 0.0737247 8.34401 0.0444079 8.2734C0.015091 8.20278 0 8.12708 0 8.05062C0 7.97416 0.015091 7.89846 0.0444079 7.82784C0.0737247 7.75723 0.116691 7.6931 0.170843 7.63912Z" fill="black"/>
</g>
</g>
</svg>
